<?xml version="1.0" encoding="UTF-8" standalone="no"?>
<svg
   xmlns:dc="http://purl.org/dc/elements/1.1/"
   xmlns:cc="http://creativecommons.org/ns#"
   xmlns:rdf="http://www.w3.org/1999/02/22-rdf-syntax-ns#"
   xmlns:svg="http://www.w3.org/2000/svg"
   xmlns="http://www.w3.org/2000/svg"
   xml:space="preserve"
   enable-background="new 0 0 40 40"
   y="0px"
   x="0px"
   id="Layer_1"
   version="1.1"><metadata
     id="metadata9"><rdf:RDF><cc:Work
         rdf:about=""><dc:format>image/svg+xml</dc:format><dc:type
           rdf:resource="http://purl.org/dc/dcmitype/StillImage" /><dc:title></dc:title></cc:Work></rdf:RDF></metadata><defs
     id="defs7" /><path
     id="path3"
     d="m 35.106292,21.491047 c 0,0.253 -0.097,0.507 -0.292,0.7 -0.389,0.387 -1.021,0.387 -1.41,0 L 19.152292,8.0430466 4.9002924,22.191047 c -0.389,0.387 -1.02,0.387 -1.41,0 -0.39,-0.387 -0.39,-1.013 0,-1.4 L 18.447292,5.9440466 c 0.389,-0.387 1.021,-0.387 1.41,0 l 14.957,14.8470004 c 0.195,0.193 0.292,0.446 0.292,0.7 z" /><path
     id="path3-3"
     d="m 35.022047,31.152313 c 0,0.253 -0.097,0.507 -0.292,0.7 -0.389,0.387 -1.021,0.387 -1.41,0 l -14.252,-14.148 -14.2520003,14.148 c -0.389,0.387 -1.02,0.387 -1.41,0 -0.39,-0.387 -0.39,-1.013 0,-1.4 l 14.9570003,-14.847 c 0.389,-0.387 1.021,-0.387 1.41,0 l 14.957,14.847 c 0.195,0.193 0.292,0.446 0.292,0.7 z" /></svg>